<svg width="1512" height="95" viewBox="0 0 1512 95" fill="none" xmlns="http://www.w3.org/2000/svg">
<path fill-rule="evenodd" clip-rule="evenodd" d="M153.724 19.0493C128.325 -6.34975 87.1449 -6.34978 61.7459 19.0493L-0.175312 80.9705C-6.24128 87.0364 -6.24129 96.8713 -0.175323 102.937L1.57362 104.686C48.657 151.77 118.814 161.716 175.647 134.525C219.519 159.915 276.396 154.353 314.571 117.84C360.752 153.402 422.597 158.964 473.677 134.525C517.55 159.915 574.427 154.353 612.602 117.84C658.783 153.402 720.628 158.964 771.708 134.525C815.581 159.915 872.458 154.353 910.633 117.84C956.814 153.402 1018.66 158.964 1069.74 134.525C1113.61 159.915 1170.49 154.353 1208.66 117.84C1254.84 153.402 1316.69 158.964 1367.77 134.525C1412.37 160.338 1470.42 154.16 1508.58 115.992C1513.14 111.438 1513.14 104.054 1508.58 99.5005L1470.01 60.9277C1446.38 37.3 1408.91 35.9617 1383.71 56.9126L1345.85 19.0493C1320.45 -6.34975 1279.27 -6.34978 1253.87 19.0493L1191.99 80.9327L1171.98 60.9277C1148.35 37.3 1110.88 35.9617 1085.68 56.9126L1047.82 19.0493C1022.42 -6.34975 981.238 -6.34978 955.838 19.0493L893.955 80.9327L873.95 60.9277C850.322 37.3 812.846 35.9616 787.649 56.9127L749.786 19.0493C724.387 -6.34975 683.207 -6.34978 657.808 19.0493L595.924 80.9327L575.919 60.9277C552.291 37.3 514.815 35.9617 489.618 56.9126L451.755 19.0493C426.356 -6.34975 385.176 -6.34978 359.777 19.0493L297.893 80.9327L277.888 60.9277C254.261 37.3 216.784 35.9617 191.587 56.9127L153.724 19.0493Z" fill="white"/>
</svg>
