<svg xmlns="http://www.w3.org/2000/svg" viewBox="0 0 463.83 512"><defs><style>.cls-1{fill:#004080;}</style></defs><title>Asset 3tetra</title><g id="Layer_2" data-name="Layer 2"><g id="Layer_3" data-name="Layer 3"><polygon class="cls-1" points="419.72 132.33 419.72 311.99 419.72 374.37 419.72 405.51 397.22 383.01 353.11 338.9 331.05 316.84 281.59 267.38 281.43 267.55 281.26 267.38 231.8 316.84 231.8 379.23 281.43 329.6 331.05 379.23 419.72 467.89 463.83 512 463.83 449.62 463.83 418.49 463.83 356.1 463.83 132.33 419.72 132.33"/><polygon class="cls-1" points="397.22 289.5 397.22 132.33 353.11 132.33 353.11 245.38 353.11 307.77 397.22 351.88 397.22 289.5"/><polygon class="cls-1" points="281.43 236.09 331.05 285.71 331.05 223.33 281.59 173.87 281.43 174.03 281.26 173.87 231.8 223.33 209.75 245.38 209.75 132.33 165.64 132.33 165.64 289.5 165.64 351.88 209.75 307.77 231.8 285.71 281.43 236.09"/><polygon class="cls-1" points="99.03 356.1 99.03 418.49 99.03 449.62 99.03 512 143.14 467.89 143.14 405.51 143.14 374.37 143.14 311.99 143.14 132.33 99.03 132.33 99.03 356.1"/><polygon class="cls-1" points="209.75 110.28 231.8 110.28 264.67 110.28 264.67 66.17 44.11 66.17 44.11 110.28 99.03 110.28 143.14 110.28 165.64 110.28 209.75 110.28"/><polygon class="cls-1" points="264.67 44.11 308.78 44.11 308.78 0 0 0 0 44.11 44.11 44.11 264.67 44.11"/></g></g></svg>