<svg xmlns="http://www.w3.org/2000/svg" viewBox="0 0 104.32 60"><defs><style>.cls-1{font-size:17.79px;font-family:Noah-Bold, Noah;font-weight:700;}.cls-1,.cls-4{fill:#004080;}.cls-2{letter-spacing:0.01em;}.cls-3{letter-spacing:-0.08em;}</style></defs><title>Asset 4tetra</title><g id="Layer_2" data-name="Layer 2"><g id="Layer_3" data-name="Layer 3"><text class="cls-1" transform="translate(0 54.77)">TET<tspan class="cls-2" x="29.27" y="0">R</tspan><tspan class="cls-3" x="40.5" y="0">A</tspan><tspan x="51.35" y="0">WRITE</tspan></text><polygon class="cls-4" points="64.59 8.76 64.59 20.65 64.59 24.78 64.59 26.84 63.1 25.35 60.18 22.43 58.72 20.97 55.45 17.7 55.44 17.71 55.43 17.7 52.15 20.97 52.15 25.1 55.44 21.82 58.72 25.1 64.59 30.97 67.51 33.89 67.51 29.76 67.51 27.7 67.51 23.57 67.51 8.76 64.59 8.76"/><polygon class="cls-4" points="63.1 19.16 63.1 8.76 60.18 8.76 60.18 16.24 60.18 20.37 63.1 23.29 63.1 19.16"/><polygon class="cls-4" points="55.44 15.63 58.72 18.91 58.72 14.78 55.45 11.51 55.44 11.52 55.43 11.51 52.15 14.78 50.69 16.24 50.69 8.76 47.77 8.76 47.77 19.16 47.77 23.29 50.69 20.37 52.15 18.91 55.44 15.63"/><polygon class="cls-4" points="43.36 23.57 43.36 27.7 43.36 29.76 43.36 33.89 46.28 30.97 46.28 26.84 46.28 24.78 46.28 20.65 46.28 8.76 43.36 8.76 43.36 23.57"/><polygon class="cls-4" points="50.69 7.3 52.15 7.3 54.33 7.3 54.33 4.38 39.73 4.38 39.73 7.3 43.36 7.3 46.28 7.3 47.77 7.3 50.69 7.3"/><polygon class="cls-4" points="54.33 2.92 57.25 2.92 57.25 0 36.81 0 36.81 2.92 39.73 2.92 54.33 2.92"/></g></g></svg>